<svg width="45" height="45" viewBox="0 0 45 45" fill="none" xmlns="http://www.w3.org/2000/svg">
<g clip-path="url(#clip0_1262_1089)">
<path d="M45 33.75C45 35.0761 44.4732 36.3479 43.5355 37.2855C42.5979 38.2232 41.3261 38.75 40 38.75H30V6.25H40C41.3261 6.25 42.5979 6.77678 43.5355 7.71447C44.4732 8.65215 45 9.92392 45 11.25V33.75Z" fill="#ED2939"/>
<path d="M5 6.25C3.67392 6.25 2.40215 6.77678 1.46447 7.71447C0.526784 8.65215 0 9.92392 0 11.25L0 33.75C0 35.0761 0.526784 36.3479 1.46447 37.2855C2.40215 38.2232 3.67392 38.75 5 38.75H15V6.25H5Z" fill="#002495"/>
<path d="M15 6.25H30V38.75H15V6.25Z" fill="#EEEEEE"/>
</g>
<defs>
<clipPath id="clip0_1262_1089">
<rect width="45" height="45" fill="white"/>
</clipPath>
</defs>
</svg>
